<?xml version="1.0" encoding="utf-8"?>
<!-- Generator: Adobe Illustrator 22.0.1, SVG Export Plug-In . SVG Version: 6.00 Build 0)  -->
<svg version="1.1" id="ps_x5F_cc_x5F_app_x5F_RGB.svg"
	 xmlns="http://www.w3.org/2000/svg" xmlns:xlink="http://www.w3.org/1999/xlink" x="0px" y="0px" viewBox="0 0 2500 2438"
	 style="enable-background:new 0 0 2500 2438;" xml:space="preserve">
<style type="text/css">
	.st0{fill:#FFFFFF;}
</style>
<path d="M104.2,104.4h2291.7v2229.2H104.2V104.4z"/>
<path d="M0,0.2v2437.5h2500V0.2H0z M104.2,104.4h2291.7v2229.2H104.2V104.4z"/>
<path class="st0" d="M1815.6,1024.2c-15.6-7.3-35.4-10.4-60.4-10.4c-131.2,0-218.8,101-218.8,268.8c0,191.7,89.6,268.8,206.2,268.8
	c25,0,52.1-3.1,71.9-11.5v-515.6L1815.6,1024.2L1815.6,1024.2z M1349,1290.9c0-242.7,156.2-432.3,412.5-432.3
	c21.9,0,33.3,0,54.2,2.1V589.8c0-6.2,5.2-10.4,10.4-10.4h167.7c8.3,0,10.4,3.1,10.4,8.3v952.1c0,28.1,0,63.5,5.2,102.1
	c0,7.3,0,8.3-6.2,11.5c-87.5,41.7-179.2,60.4-266.7,60.4C1510.4,1713.8,1349,1574.2,1349,1290.9L1349,1290.9z M993.8,1122.1
	l291.7,565.6c5.2,8.3,2.1,16.7-6.2,16.7h-181.2c-11.5,0-16.7-3.1-21.9-13.5c-66.7-137.5-134.4-280.2-204.2-428.1h-2.1
	C807.4,1402.4,738.7,1554.5,672,1692c-5.2,8.3-10.4,11.5-18.8,11.5h-173c-10.4,0-11.5-8.3-6.2-14.6l285.4-549L483.3,594
	c-6.2-8.3,0-15.6,7.3-15.6h179.2c10.4,0,15.6,2.1,18.8,11.5c65.6,138.5,132.3,275,194.8,414.6h2.1c60.4-137.5,127.1-276,190.6-412.5
	c5.2-8.3,8.3-13.5,18.8-13.5h167.7c8.3,0,11.5,6.2,6.2,15.6L993.8,1122.1L993.8,1122.1z"/>
</svg>
